#!OML:ASF E:\Steps\Project 1\Capture day 1\Session 2\Subject.ASF
:FULLY-SPECIFIED
:DEGREES
615
root 8.77633 18.5537 -2.95354 -157.883 0.470765 180.314
lowerback -18.4435 -3.90567 -7.21169
upperback 2.36686 -3.47944 -0.0255944
thorax 13.5584 -2.125 3.02495
lowerneck -2.62278 -2.29594 -1.08722
upperneck 21.2048 -2.3505 3.74299
head 6.94654 -0.371366 1.30174
rclavicle 1.35174e-014 1.51076e-014
rhumerus -44.9523 -17.6927 -73.8949
rradius 31.3506
rwrist -1.22279
rhand -9.13058 -50.8022
rfingers 7.12502
rthumb 16.8207 -80.0937
lclavicle 1.35174e-014 1.51076e-014
lhumerus -25.2905 -2.59147 81.6202
lradius 30.6857
lwrist 0.600934
lhand -21.5431 -14.0527
lfingers 7.12502
lthumb 4.84999 15.8718
rfemur -72.9903 1.47715 20.2398
rtibia 64.6328
rfoot -24.5684 -7.2376
rtoes -36.3973
lfemur -24.8809 -8.01051 -21.0946
ltibia 17.5252
lfoot -11.3678 1.87515
ltoes -28.0271
616
root 8.7865 18.5491 -3.00057 -157.805 0.355172 180.199
lowerback -18.4867 -3.97393 -7.25776
upperback 2.34513 -3.55891 -0.00241622
thorax 13.5734 -2.1654 3.05088
lowerneck -2.6331 -2.32849 -1.32683
upperneck 21.1356 -2.42565 3.97435
head 6.93351 -0.412009 1.4111
rclavicle -1.19271e-015 -3.4191e-014
rhumerus -44.919 -17.4927 -74.1608
rradius 31.4674
rwrist -1.46007
rhand -9.19203 -50.3456
rfingers 7.12502
rthumb 16.7616 -79.6421
lclavicle -1.19271e-015 -3.4191e-014
lhumerus -25.2421 -2.54675 81.6549
lradius 30.4587
lwrist 0.494741
lhand -21.2507 -14.0505
lfingers 7.12502
lthumb 5.13228 15.8674
rfemur -72.989 1.43778 20.1641
rtibia 64.3545
rfoot -23.7071 -7.46365
rtoes -38.6025
lfemur -24.7256 -8.0757 -21.187
ltibia 17.447
lfoot -11.5084 1.77493
ltoes -27.3686
617
root 8.7968 18.5457 -3.04875 -157.673 0.204845 180.037
lowerback -18.5144 -4.04942 -7.3286
upperback 2.25585 -3.64177 0.0133972
thorax 13.502 -2.20387 3.08473
lowerneck -2.89882 -2.35441 -1.30113
upperneck 21.6272 -2.42059 3.91718
head 7.13969 -0.386172 1.39339
rclavicle -2.28602e-014 -2.14687e-014
rhumerus -45.0067 -17.4792 -74.2822
rradius 31.5878
rwrist -1.49028
rhand -9.2398 -50.3185
rfingers 7.12502
rthumb 16.7156 -79.6188
lclavicle -2.28602e-014 -2.14687e-014
lhumerus -25.3678 -2.60053 81.7273
lradius 30.4055
lwrist 0.319489
lhand -21.1911 -13.5841
lfingers 7.12502
lthumb 5.18983 16.3324
rfemur -72.9409 1.3055 20.0697
rtibia 63.9819
rfoot -24.9936 -7.01946
rtoes -33.0197
lfemur -24.6813 -8.11438 -21.3256
ltibia 17.4632
lfoot -11.6546 1.58877
ltoes -26.0461
618
root 8.80736 18.5398 -3.10357 -157.59 0.0370269 180.018
lowerback -18.6335 -4.08498 -7.22396
upperback 2.19942 -3.71023 0.0587762
thorax 13.5095 -2.22775 3.05186
lowerneck -3.05304 -2.3602 -1.06766
upperneck 21.8512 -2.36569 3.52535
head 7.23161 -0.363978 1.23176
rclavicle 1.39149e-015 -5.56597e-015
rhumerus -45.1166 -17.3497 -74.4839
rradius 31.8591
rwrist -1.69154
rhand -9.47762 -50.5713
rfingers 7.12502
rthumb 16.4866 -79.8908
lclavicle 1.39149e-015 -5.56597e-015
lhumerus -25.4522 -2.69746 81.8314
lradius 30.228
lwrist -0.0678832
lhand -21.3239 -13.2783
lfingers 7.12502
lthumb 5.06157 16.6412
rfemur -72.5878 1.21627 20.1348
rtibia 63.3733
rfoot -24.4774 -6.84647
rtoes -32.0419
lfemur -24.5368 -8.09079 -21.3057
ltibia 17.4126
lfoot -11.7675 1.45098
ltoes -29.402
619
root 8.8199 18.5305 -3.16124 -157.564 -0.0402665 180.004
lowerback -18.8255 -4.00887 -7.16839
upperback 2.19283 -3.75088 0.0817115
thorax 13.6099 -2.30189 3.01188
lowerneck -3.08547 -2.47493 -1.11001
upperneck 21.9799 -2.50869 3.51266
head 7.2838 -0.430247 1.22595
rclavicle 2.60408e-014 -1.82882e-014
rhumerus -45.2396 -16.9389 -74.8736
rradius 32.2555
rwrist -2.25912
rhand -9.68152 -50.4913
rfingers 7.12502
rthumb 16.2903 -79.827
lclavicle 2.60408e-014 -1.82882e-014
lhumerus -25.5788 -2.73255 81.9137
lradius 30.0434
lwrist -0.441897
lhand -21.3838 -13.5272
lfingers 7.12502
lthumb 5.00376 16.3938
rfemur -72.1604 1.22829 20.1822
rtibia 62.8094
rfoot -26.2976 -6.47934
rtoes -27.0815
lfemur -24.2585 -7.99626 -21.3038
ltibia 17.2434
lfoot -11.8499 1.3519
ltoes -28.6552
620
root 8.83092 18.5215 -3.21617 -157.612 -0.0651495 179.919
lowerback -18.8847 -4.0134 -7.12304
upperback 2.2019 -3.76067 0.0679321
thorax 13.6519 -2.30316 2.96437
lowerneck -2.72615 -2.41935 -1.26403
upperneck 21.6148 -2.47159 3.76378
head 7.10433 -0.41771 1.33495
rclavicle 2.5842e-014 -2.22639e-014
rhumerus -45.2752 -16.7807 -75.1011
rradius 32.3978
rwrist -2.31877
rhand -9.53724 -50.6632
rfingers 7.12502
rthumb 16.4292 -79.9875
lclavicle 2.5842e-014 -2.22639e-014
lhumerus -25.7886 -2.7697 81.9937
lradius 29.9411
lwrist -0.269118
lhand -21.2965 -13.7889
lfingers 7.12502
lthumb 5.08811 16.13
rfemur -71.7201 1.23319 20.1648
rtibia 62.2654
rfoot -23.4517 -7.59121
rtoes -37.1093
lfemur -23.8795 -7.92104 -21.4054
ltibia 17.0416
lfoot -11.939 1.19964
ltoes -27.6445
621
root 8.83815 18.5184 -3.26966 -157.6 -0.283358 179.836
lowerback -18.9314 -4.05065 -6.97785
upperback 2.20762 -3.8393 0.0629775
thorax 13.6835 -2.32819 2.8493
lowerneck -2.75729 -2.40669 -1.14784
upperneck 21.6692 -2.44311 3.67634
head 7.12432 -0.398583 1.28937
rclavicle -2.52457e-014 -1.11319e-014
rhumerus -45.2544 -16.9868 -75.1537
rradius 32.4571
rwrist -1.93517
rhand -9.11673 -50.7786
rfingers 7.12502
rthumb 16.8341 -80.0689
lclavicle -2.52457e-014 -1.11319e-014
lhumerus -25.7602 -2.83324 82.0197
lradius 29.7355
lwrist -0.208264
lhand -20.9515 -13.693
lfingers 7.12502
lthumb 5.42118 16.2176
rfemur -71.2993 1.09323 20.1268
rtibia 61.8332
rfoot -23.7341 -7.51593
rtoes -35.19
lfemur -23.6314 -8.02433 -21.4518
ltibia 16.9359
lfoot -12.0527 0.992498
ltoes -27.5084
622
root 8.84829 18.5166 -3.32671 -157.479 -0.54063 179.741
lowerback -19.1281 -4.12339 -6.90836
upperback 2.18342 -3.94134 0.0851336
thorax 13.7789 -2.37175 2.79307
lowerneck -3.0203 -2.44382 -0.867504
upperneck 22.0606 -2.43906 3.3603
head 7.29192 -0.381422 1.14212
rclavicle -2.16675e-014 -4.21423e-014
rhumerus -45.1892 -17.2802 -75.1428
rradius 32.3954
rwrist -1.6771
rhand -8.89034 -50.2676
rfingers 7.12502
rthumb 17.052 -79.5392
lclavicle -2.16675e-014 -4.21423e-014
lhumerus -25.7388 -2.74659 81.9971
lradius 29.5968
lwrist -0.690314
lhand -20.4192 -13.0382
lfingers 7.12502
lthumb 5.93511 16.8587
rfemur -71.0303 1.02359 19.9893
rtibia 61.6261
rfoot -24.8771 -6.90584
rtoes -29.9048
lfemur -23.516 -8.15244 -21.4812
ltibia 16.8552
lfoot -12.2027 0.793029
ltoes -27.6319
623
root 8.86118 18.5115 -3.38539 -157.366 -0.638623 179.576
lowerback -19.2954 -4.17446 -7.01652
upperback 2.11204 -3.98184 0.1431
thorax 13.8117 -2.401 2.90026
lowerneck -2.97621 -2.42674 -0.980556
upperneck 22.1155 -2.41444 3.48817
head 7.30451 -0.361809 1.2062
rclavicle -1.98785e-016 -1.35174e-014
rhumerus -45.1478 -17.2699 -75.1395
rradius 32.354
rwrist -1.81396
rhand -8.9779 -50.1978
rfingers 7.12502
rthumb 16.9677 -79.4767
lclavicle -1.98785e-016 -1.35174e-014
lhumerus -25.8501 -2.65509 82.1633
lradius 29.3987
lwrist -1.04334
lhand -20.584 -12.898
lfingers 7.12502
lthumb 5.77601 17.0033
rfemur -70.7868 1.05566 19.7836
rtibia 61.3667
rfoot -24.2315 -6.82232
rtoes -32.3081
lfemur -23.3078 -8.27528 -21.6015
ltibia 16.6569
lfoot -12.3852 0.667645
ltoes -28.071
624
root 8.8716 18.5058 -3.4445 -157.223 -0.763628 179.414
lowerback -19.471 -4.18495 -7.05346
upperback 2.03575 -3.98529 0.212569
thorax 13.8341 -2.40786 2.99242
lowerneck -2.45733 -2.35514 -1.16145
upperneck 21.4516 -2.3581 3.66954
head 6.99807 -0.363312 1.29535
rclavicle 5.36719e-015 2.38542e-015
rhumerus -45.1986 -17.0442 -75.2069
rradius 32.5798
rwrist -2.24549
rhand -9.12087 -50.7657
rfingers 7.12502
rthumb 16.8301 -80.0563
lclavicle 5.36719e-015 2.38542e-015
lhumerus -25.9656 -2.74362 82.4572
lradius 29.1532
lwrist -1.12115
lhand -20.9889 -13.4405
lfingers 7.12502
lthumb 5.38506 16.4711
rfemur -70.4147 0.967188 19.6664
rtibia 60.7964
rfoot -23.7632 -6.61952
rtoes -33.9619
lfemur -23.1316 -8.48071 -21.7003
ltibia 16.4744
lfoot -12.5634 0.60011
ltoes -25.6825
625
root 8.88195 18.4991 -3.50858 -157.052 -0.922692 179.326
lowerback -19.7448 -4.2034 -6.96482
upperback 1.99301 -4.01782 0.261908
thorax 13.9451 -2.41931 2.97521
lowerneck -2.677 -2.40336 -1.27105
upperneck 21.7069 -2.41372 3.72681
head 7.12382 -0.381766 1.33048
rclavicle -2.54444e-014 -1.59028e-014
rhumerus -45.2344 -17.0596 -75.234
rradius 32.7642
rwrist -2.40011
rhand -9.2545 -51.0137
rfingers 7.12502
rthumb 16.7014 -80.3153
lclavicle -2.54444e-014 -1.59028e-014
lhumerus -26.0594 -2.69776 82.5916
lradius 28.9536
lwrist -1.37151
lhand -20.6758 -13.2316
lfingers 7.12502
lthumb 5.68738 16.6721
rfemur -69.9115 0.890963 19.6337
rtibia 59.9671
rfoot -23.2516 -6.50459
rtoes -34.5068
lfemur -22.9995 -8.6082 -21.7244
ltibia 16.3386
lfoot -12.7492 0.543275
ltoes -24.248
